# xmcd
#
# Track frame offsets:
#	150
#	11732
#	25432
#	41770
#	59095
#	72025
#	88785
#	101915
#	117217
#	129205
#	143632
#	157565
#	176962
#	196097
#	207352
#
# Disc length: 2901
#
# Revision: 1
# Processed by: cddbd v1.5.1PL0 Copyright (c) Steve Scherf et al.
# Submitted via: CDex 1.51
# Normalized: r0:DSETVAR1,TDELIM( - )
#
DISCID=d00b530f
DTITLE=Various Artist - Mistletoe Memories
DYEAR=1994
DGENRE=Country
TTITLE0=Lorrie Morgan - Let It Snow! Let It Snow!
TTITLE1=Ronnie Milsap - Silver Bells
TTITLE2=John Anderson - What Child Is This
TTITLE3=Restless Heart - Little Drummer Boy
TTITLE4=Steve Wariner - Noel, Noel
TTITLE5=K.T. Oslin - Blue Christmas
TTITLE6=Doug Supernaw - Christmas Will Never Be the Same
TTITLE7=Alabama - Christmas Memories
TTITLE8=Eddy Arnold - O Little Town of Bethlehem
TTITLE9=Jim Reeves - Silent Night
TTITLE10=Dolly Parton - White Christmas
TTITLE11=Charley Pride - O Holy Night
TTITLE12=Keith Whitley - There's a New Kid In Town
TTITLE13=Willie Nelson - Pretty Paper
TTITLE14=Chet Atkins - O Come All Ye Faithful
EXTD=YEAR: 1994
EXTT0=
EXTT1=
EXTT2=
EXTT3=
EXTT4=
EXTT5=
EXTT6=
EXTT7=
EXTT8=
EXTT9=
EXTT10=
EXTT11=
EXTT12=
EXTT13=
EXTT14=
PLAYORDER=
